<svg width="45" height="45" viewBox="0 0 45 45" fill="none" xmlns="http://www.w3.org/2000/svg">
<circle cx="22.5" cy="22.5" r="22.5" fill="white"/>
<path d="M21.7188 33.6875C19.4792 33.6042 17.7344 33.0781 16.4844 32.1094C15.2344 31.1302 14.4115 29.6354 14.0156 27.625L18.0156 26.8906C18.2135 28.0677 18.6042 28.9323 19.1875 29.4844C19.7812 30.026 20.625 30.349 21.7188 30.4531V24.3438C21.3229 24.25 20.8542 24.1302 20.3125 23.9844C19.7708 23.8281 19.2396 23.6562 18.7188 23.4688C18.1979 23.2708 17.7656 23.0677 17.4219 22.8594C16.5677 22.3385 15.901 21.6771 15.4219 20.875C14.9531 20.0625 14.7188 19.0729 14.7188 17.9062C14.7188 16.1771 15.3125 14.8385 16.5 13.8906C17.6979 12.9427 19.4375 12.4271 21.7188 12.3438V10.25H23.4219V12.3438C24.7031 12.4062 25.7969 12.6042 26.7031 12.9375C27.6198 13.2708 28.375 13.8229 28.9688 14.5938C29.5729 15.3646 30.0469 16.4375 30.3906 17.8125L26.2656 18.4219C26.1094 17.5156 25.8021 16.8177 25.3438 16.3281C24.8958 15.8281 24.2552 15.5208 23.4219 15.4062V20.9062C23.6615 20.9479 24.0156 21.026 24.4844 21.1406C24.9635 21.2552 25.5885 21.4375 26.3594 21.6875C27.8906 22.1875 29.0365 22.9271 29.7969 23.9062C30.5573 24.875 30.9375 26.0938 30.9375 27.5625C30.9375 29.4479 30.3021 30.9115 29.0312 31.9531C27.7708 32.9844 25.901 33.5469 23.4219 33.6406V36.375H21.7188V33.6875ZM18.8125 17.8438C18.8125 18.3125 18.8958 18.6927 19.0625 18.9844C19.2604 19.3594 19.5625 19.6458 19.9688 19.8438C20.375 20.0417 20.9583 20.2708 21.7188 20.5312V15.3438C19.7812 15.4792 18.8125 16.3125 18.8125 17.8438ZM26.875 27.625C26.875 27.1042 26.7812 26.6823 26.5938 26.3594C26.4167 26.026 26.1458 25.7552 25.7812 25.5469C25.4167 25.3385 24.6302 25.0625 23.4219 24.7188V30.4531C24.5677 30.3698 25.4271 30.0938 26 29.625C26.5833 29.1562 26.875 28.4896 26.875 27.625Z" fill="#3399CC"/>
</svg>
