<svg width="66" height="66" viewBox="0 0 66 66" fill="none" xmlns="http://www.w3.org/2000/svg">
<g filter="url(#filter0_d_2201_14614)">
<rect x="10" y="28.6274" width="32" height="32" transform="rotate(-45 10 28.6274)" fill="url(#paint0_linear_2201_14614)"/>
</g>
<path d="M27.7071 19.293C27.3166 18.9024 26.6834 18.9024 26.2929 19.293L19.9289 25.6569C19.5384 26.0474 19.5384 26.6806 19.9289 27.0711C20.3195 27.4617 20.9526 27.4617 21.3431 27.0711L27 21.4143L32.6569 27.0711C33.0474 27.4617 33.6805 27.4617 34.0711 27.0711C34.4616 26.6806 34.4616 26.0474 34.0711 25.6569L27.7071 19.293ZM27 38.0001H28L28 20.0001H27H26L26 38.0001H27Z" fill="white"/>
<path d="M37.2929 38.7072C37.6834 39.0977 38.3166 39.0977 38.7071 38.7072L45.0711 32.3432C45.4616 31.9527 45.4616 31.3195 45.0711 30.929C44.6805 30.5385 44.0474 30.5385 43.6569 30.929L38 36.5858L32.3431 30.929C31.9526 30.5385 31.3195 30.5385 30.9289 30.929C30.5384 31.3195 30.5384 31.9527 30.9289 32.3432L37.2929 38.7072ZM38 20.0001H37V38.0001H38H39V20.0001H38Z" fill="white"/>
<defs>
<filter id="filter0_d_2201_14614" x="0" y="0" width="65.2549" height="65.2549" filterUnits="userSpaceOnUse" color-interpolation-filters="sRGB">
<feFlood flood-opacity="0" result="BackgroundImageFix"/>
<feColorMatrix in="SourceAlpha" type="matrix" values="0 0 0 0 0 0 0 0 0 0 0 0 0 0 0 0 0 0 127 0" result="hardAlpha"/>
<feOffset dy="4"/>
<feGaussianBlur stdDeviation="5"/>
<feComposite in2="hardAlpha" operator="out"/>
<feColorMatrix type="matrix" values="0 0 0 0 0.227451 0 0 0 0 0.368627 0 0 0 0 0.670588 0 0 0 0.21 0"/>
<feBlend mode="normal" in2="BackgroundImageFix" result="effect1_dropShadow_2201_14614"/>
<feBlend mode="normal" in="SourceGraphic" in2="effect1_dropShadow_2201_14614" result="shape"/>
</filter>
<linearGradient id="paint0_linear_2201_14614" x1="10" y1="44.6274" x2="42" y2="44.6274" gradientUnits="userSpaceOnUse">
<stop stop-color="#1FBEE3"/>
<stop offset="1" stop-color="#3A5EAB"/>
</linearGradient>
</defs>
</svg>
